<svg width="79" height="26" viewBox="0 0 79 26" fill="none" xmlns="http://www.w3.org/2000/svg">
<g id="suite">
<path id="Path" d="M8.0081 25.384C6.99477 25.384 6.01877 25.2667 5.0801 25.032C4.14143 24.7973 3.30143 24.4507 2.5601 23.992C1.81877 23.5333 1.2321 22.96 0.8001 22.272C0.3681 21.584 0.1521 20.7813 0.1521 19.864C0.1521 19.8213 0.1521 19.7707 0.1521 19.712C0.1521 19.6533 0.1521 19.608 0.1521 19.576H5.0801C5.0801 19.608 5.0801 19.6427 5.0801 19.68C5.0801 19.7173 5.0801 19.7573 5.0801 19.8C5.0801 20.4187 5.35477 20.872 5.9041 21.16C6.45343 21.448 7.19743 21.592 8.1361 21.592C8.62677 21.592 9.09877 21.5413 9.5521 21.44C10.0054 21.3387 10.3788 21.1733 10.6721 20.944C10.9654 20.7147 11.1121 20.424 11.1121 20.072C11.1121 19.5067 10.8001 19.1067 10.1761 18.872C9.5521 18.6373 8.5521 18.4027 7.1761 18.168C6.39743 18.04 5.6081 17.8587 4.8081 17.624C4.0081 17.3893 3.2721 17.0773 2.6001 16.688C1.9281 16.2987 1.38943 15.8027 0.9841 15.2C0.578766 14.5973 0.3761 13.864 0.3761 13C0.3761 11.848 0.725433 10.8773 1.4241 10.088C2.12277 9.29866 3.05343 8.70132 4.2161 8.29599C5.37877 7.89065 6.65877 7.68799 8.0561 7.68799C9.38943 7.68799 10.6321 7.90932 11.7841 8.35199C12.9361 8.79465 13.8694 9.42932 14.5841 10.256C15.2988 11.0827 15.6561 12.0773 15.6561 13.24C15.6561 13.2613 15.6561 13.2933 15.6561 13.336C15.6561 13.3787 15.6561 13.4213 15.6561 13.464H10.7761C10.7761 13.4213 10.7761 13.384 10.7761 13.352C10.7761 13.32 10.7761 13.2933 10.7761 13.272C10.7761 12.8453 10.6401 12.4987 10.3681 12.232C10.0961 11.9653 9.7521 11.7653 9.3361 11.632C8.9201 11.4987 8.4881 11.432 8.0401 11.432C7.63477 11.432 7.2161 11.4773 6.7841 11.568C6.3521 11.6587 5.98677 11.808 5.6881 12.016C5.38943 12.224 5.2401 12.5147 5.2401 12.888C5.2401 13.2507 5.4001 13.5467 5.7201 13.776C6.0401 14.0053 6.4881 14.192 7.0641 14.336C7.6401 14.48 8.30677 14.616 9.0641 14.744C9.77877 14.8613 10.5334 15.024 11.3281 15.232C12.1228 15.44 12.8694 15.7333 13.5681 16.112C14.2668 16.4907 14.8321 16.9867 15.2641 17.6C15.6961 18.2133 15.9121 18.9893 15.9121 19.928C15.9121 20.8987 15.6881 21.7307 15.2401 22.424C14.7921 23.1173 14.1868 23.68 13.4241 24.112C12.6614 24.544 11.8134 24.864 10.8801 25.072C9.94677 25.28 8.98943 25.384 8.0081 25.384Z" fill="#172339"/>
<path id="Shape" fill-rule="evenodd" clip-rule="evenodd" d="M21.6117 24.7359C22.3903 25.1253 23.3823 25.3199 24.5877 25.3199C25.665 25.3199 26.633 25.1279 27.4917 24.7439C28.3503 24.3599 29.0783 23.8239 29.6757 23.1359C29.8468 22.9388 30.0068 22.7322 30.1557 22.5162V24.9999H35.1157V8.00793H30.1557V16.6159C30.1557 17.3519 30.0117 18.0666 29.7237 18.7599C29.4357 19.4533 29.0197 20.0213 28.4757 20.4639C27.9317 20.9066 27.2703 21.1279 26.4917 21.1279C25.6917 21.1279 25.0757 20.9466 24.6437 20.5839C24.2117 20.2213 23.9157 19.7413 23.7557 19.1439C23.5957 18.5466 23.5157 17.8906 23.5157 17.1759V16.2319V15.1759V8.00793H18.5557V15.9599V17.2719V18.4879C18.5557 19.3199 18.6463 20.1413 18.8277 20.9519C19.009 21.7626 19.3237 22.4986 19.7717 23.1599C20.2197 23.8213 20.833 24.3466 21.6117 24.7359ZM30.1557 16.6159V22.5162C30.5262 21.9785 30.8276 21.3824 31.0597 20.7279C31.385 19.8106 31.5477 18.8186 31.5477 17.7519L30.1557 16.6159Z" fill="#172339"/>
<path id="Shape_2" fill-rule="evenodd" clip-rule="evenodd" d="M38.6311 4.63198C39.2018 5.03732 39.8711 5.23998 40.6391 5.23998C41.4178 5.23998 42.0925 5.03998 42.6631 4.63998C43.2338 4.23998 43.5191 3.66665 43.5191 2.91998C43.5191 2.17332 43.2338 1.59732 42.6631 1.19198C42.0925 0.786651 41.4178 0.583984 40.6391 0.583984C39.8711 0.583984 39.2018 0.786651 38.6311 1.19198C38.0605 1.59732 37.7751 2.17332 37.7751 2.91998C37.7751 3.65598 38.0605 4.22665 38.6311 4.63198ZM38.1911 8.00798V25H43.1031V8.00798H38.1911Z" fill="#172339"/>
<path id="Path_2" d="M54.6748 25.352C54.0242 25.352 53.3548 25.296 52.6668 25.184C51.9788 25.072 51.3388 24.848 50.7468 24.512C50.1548 24.176 49.6775 23.6826 49.3148 23.032C48.9522 22.3813 48.7708 21.5226 48.7708 20.456C48.7708 20.2213 48.7708 19.9813 48.7708 19.736C48.7708 19.4906 48.7708 19.2453 48.7708 19V11.848H44.8508V8.00796H45.9548C46.5948 8.00796 47.1042 7.98129 47.4828 7.92796C47.8615 7.87463 48.1442 7.73863 48.3308 7.51996C48.5175 7.30129 48.6375 6.95729 48.6908 6.48796C48.7442 6.01863 48.7708 5.37329 48.7708 4.55196V2.40796H53.7468V8.00796H58.6908V11.848H53.7468V17.96C53.7468 18.152 53.7468 18.3386 53.7468 18.52C53.7468 18.7013 53.7468 18.8773 53.7468 19.048C53.7468 19.784 53.8348 20.3813 54.0108 20.84C54.1868 21.2986 54.6268 21.528 55.3308 21.528C55.6828 21.528 56.0162 21.496 56.3308 21.432C56.6455 21.368 56.8828 21.304 57.0428 21.24V24.968C56.8188 25.064 56.5042 25.152 56.0988 25.232C55.6935 25.312 55.2188 25.352 54.6748 25.352Z" fill="#172339"/>
<path id="Path_3" d="M62.7263 17.992V14.712H73.9903L73.5103 15.544C73.5103 15.4587 73.5103 15.376 73.5103 15.296C73.5103 15.216 73.5103 15.1387 73.5103 15.064C73.5103 14.456 73.3663 13.872 73.0783 13.312C72.7903 12.752 72.345 12.2933 71.7423 11.936C71.1397 11.5787 70.369 11.4 69.4303 11.4C68.4917 11.4 67.6837 11.6 67.0063 12C66.329 12.4 65.8117 12.9733 65.4543 13.72C65.097 14.4667 64.9183 15.368 64.9183 16.424C64.9183 17.512 65.0917 18.4427 65.4383 19.216C65.785 19.9893 66.3023 20.584 66.9903 21C67.6783 21.416 68.5343 21.624 69.5583 21.624C70.2197 21.624 70.7903 21.5627 71.2703 21.44C71.7503 21.3173 72.1423 21.16 72.4463 20.968C72.7503 20.776 72.9823 20.5627 73.1423 20.328C73.3023 20.0933 73.3983 19.864 73.4303 19.64H78.3263C78.2623 20.3547 78.017 21.056 77.5903 21.744C77.1637 22.432 76.5717 23.0507 75.8143 23.6C75.057 24.1493 74.137 24.584 73.0543 24.904C71.9717 25.224 70.737 25.384 69.3503 25.384C67.473 25.384 65.8357 25.008 64.4383 24.256C63.041 23.504 61.9583 22.464 61.1903 21.136C60.4223 19.808 60.0383 18.2747 60.0383 16.536C60.0383 14.776 60.4303 13.232 61.2143 11.904C61.9983 10.576 63.0917 9.54132 64.4943 8.79999C65.897 8.05865 67.521 7.68799 69.3663 7.68799C71.2543 7.68799 72.8863 8.06399 74.2623 8.81599C75.6383 9.56799 76.6997 10.6187 77.4463 11.968C78.193 13.3173 78.5663 14.888 78.5663 16.68C78.5663 16.9467 78.561 17.2027 78.5503 17.448C78.5397 17.6933 78.5237 17.8747 78.5023 17.992H62.7263Z" fill="#172339"/>
</g>
</svg>
